<?xml version="1.0" encoding="UTF-8" standalone="no"?>
<!-- Created with Inkscape (http://www.inkscape.org/) -->

<svg
   width="131"
   height="41"
   viewBox="0 0 131 41"
   version="1.1"
   id="svg1"
   xml:space="preserve"
   inkscape:version="1.4.3 (0d15f75042, 2025-12-25)"
   sodipodi:docname="skip-btn.svg"
   xmlns:inkscape="http://www.inkscape.org/namespaces/inkscape"
   xmlns:sodipodi="http://sodipodi.sourceforge.net/DTD/sodipodi-0.dtd"
   xmlns="http://www.w3.org/2000/svg"
   xmlns:svg="http://www.w3.org/2000/svg"><sodipodi:namedview
     id="namedview1"
     pagecolor="#505050"
     bordercolor="#ffffff"
     borderopacity="1"
     inkscape:showpageshadow="0"
     inkscape:pageopacity="0"
     inkscape:pagecheckerboard="1"
     inkscape:deskcolor="#505050"
     inkscape:document-units="px"
     showguides="true"
     inkscape:zoom="1.3606468"
     inkscape:cx="-72.392042"
     inkscape:cy="-9.5542796"
     inkscape:window-width="2560"
     inkscape:window-height="1363"
     inkscape:window-x="1760"
     inkscape:window-y="648"
     inkscape:window-maximized="1"
     inkscape:current-layer="g28"><sodipodi:guide
       position="70.5,235.5"
       orientation="0,-1"
       id="guide1"
       inkscape:locked="false" /></sodipodi:namedview><defs
     id="defs1"><filter
       style="color-interpolation-filters:sRGB"
       inkscape:label="Drop Shadow"
       id="filter22"
       x="-0.11538462"
       y="-0.375"
       width="1.2307692"
       height="1.75"><feFlood
         result="flood"
         in="SourceGraphic"
         flood-opacity="0.254902"
         flood-color="rgb(0,0,0)"
         id="feFlood21" /><feGaussianBlur
         result="blur"
         in="SourceGraphic"
         stdDeviation="2.500000"
         id="feGaussianBlur21" /><feOffset
         result="offset"
         in="blur"
         dx="-2.500000"
         dy="-2.500000"
         id="feOffset21" /><feComposite
         result="comp1"
         operator="out"
         in="flood"
         in2="offset"
         id="feComposite21" /><feComposite
         result="fbSourceGraphic"
         operator="atop"
         in="comp1"
         in2="SourceGraphic"
         id="feComposite22" /><feColorMatrix
         result="fbSourceGraphicAlpha"
         in="fbSourceGraphic"
         values="0 0 0 -1 0 0 0 0 -1 0 0 0 0 -1 0 0 0 0 1 0"
         id="feColorMatrix23" /><feFlood
         id="feFlood23"
         result="flood"
         in="fbSourceGraphic"
         flood-opacity="0.254902"
         flood-color="rgb(255,255,255)" /><feGaussianBlur
         id="feGaussianBlur23"
         result="blur"
         in="fbSourceGraphic"
         stdDeviation="2.500000" /><feOffset
         id="feOffset23"
         result="offset"
         in="blur"
         dx="2.500000"
         dy="2.500000" /><feComposite
         id="feComposite23"
         result="comp1"
         operator="out"
         in="flood"
         in2="offset" /><feComposite
         id="feComposite24"
         result="comp2"
         operator="atop"
         in="comp1"
         in2="fbSourceGraphic" /></filter></defs><g
     inkscape:label="Layer 1"
     inkscape:groupmode="layer"
     id="layer1"
     transform="translate(-57.5,-107.5)"><g
       id="g29"><rect
         style="fill:#d8d8d8;fill-opacity:1;stroke:#ffffff;stroke-width:1;stroke-miterlimit:10;stroke-dasharray:none;stroke-opacity:1;filter:url(#filter22)"
         id="rect4"
         width="130"
         height="40"
         x="58.000004"
         y="108"
         rx="5" /><g
         id="g28"
         transform="translate(-9.5268997)"><path
           style="font-weight:600;font-size:24px;line-height:1.2;font-family:'Adwaita Sans';-inkscape-font-specification:'Adwaita Sans Semi-Bold';fill:#272727;stroke-width:0.491501;stroke-miterlimit:10"
           d="m 84.993828,137.05048 q -2.15625,0 -3.703125,-0.71485 -1.546875,-0.71484 -2.378906,-2.05078 -0.832032,-1.33594 -0.832032,-3.21094 h 3.035157 q 0.01172,1.05469 0.480468,1.81641 0.46875,0.75 1.335938,1.14844 0.878906,0.39843 2.085937,0.39843 1.089844,0 1.898438,-0.30468 0.820312,-0.31641 1.265625,-0.87891 0.457031,-0.57422 0.457031,-1.33594 0,-0.62109 -0.328125,-1.07812 -0.328125,-0.45703 -1.042969,-0.79688 -0.703125,-0.33984 -1.875,-0.60937 l -1.875,-0.42188 q -2.613281,-0.59765 -3.855468,-1.76953 -1.242188,-1.17187 -1.242188,-3.01172 0,-1.57031 0.796875,-2.73047 0.808594,-1.17187 2.25,-1.8164 1.453125,-0.65625 3.375,-0.65625 1.957031,0 3.375,0.67969 1.429688,0.66796 2.214844,1.92187 0.796875,1.24219 0.84375,2.97656 h -2.941406 q -0.09375,-1.38281 -1.03125,-2.16797 -0.9375,-0.78515 -2.472657,-0.78515 -0.960937,0 -1.710937,0.3164 -0.75,0.30469 -1.171875,0.85547 -0.421875,0.53907 -0.421875,1.25391 0,0.58594 0.316406,1.01953 0.328125,0.42188 1.019531,0.75 0.703125,0.32813 1.839844,0.58594 l 1.769531,0.41015 q 1.359375,0.30469 2.34375,0.75 0.996094,0.4336 1.640625,1.03125 0.644532,0.59766 0.949219,1.3711 0.316406,0.77344 0.316406,1.73437 0,1.62891 -0.820312,2.82422 -0.820313,1.19531 -2.332031,1.85156 -1.511719,0.64454 -3.574219,0.64454 z m 11.589844,-4.14844 v -3.49219 h 0.292968 l 4.81641,-5.01562 h 3.55078 l -5.74219,6.10546 h -0.585937 z m -2.695313,3.86719 v -17.46094 h 2.953125 v 17.46094 z m 8.132811,0 -4.289061,-5.61329 1.992188,-2.0625 5.824223,7.67579 z m 4.73438,0 v -12.375 h 2.95312 v 12.375 z m 1.47656,-14.21485 q -0.76172,0 -1.26563,-0.48047 -0.5039,-0.49218 -0.5039,-1.20703 0,-0.71484 0.5039,-1.19531 0.50391,-0.48047 1.25391,-0.48047 0.76172,0 1.26563,0.48047 0.5039,0.48047 0.5039,1.20703 0,0.71484 -0.5039,1.19531 -0.50391,0.48047 -1.25391,0.48047 z m 4.10156,19.11328 v -17.27343 h 2.90625 v 1.72265 h 0.0352 q 0.38672,-0.65625 0.96094,-1.08984 0.57421,-0.44531 1.27734,-0.65625 0.71484,-0.22266 1.51172,-0.22266 1.60547,0 2.80078,0.8086 1.20703,0.80859 1.875,2.26171 0.66797,1.45313 0.66797,3.35157 0,1.92187 -0.66797,3.375 -0.65625,1.45312 -1.86328,2.26172 -1.20703,0.80859 -2.82422,0.80859 -0.80859,0 -1.5,-0.23438 -0.69141,-0.23437 -1.25391,-0.70312 -0.55078,-0.46875 -0.9375,-1.17188 h -0.0352 v 6.76172 z m 5.98828,-7.125 q 0.91407,0 1.59375,-0.45703 0.69141,-0.45703 1.07813,-1.34765 0.38672,-0.89063 0.38672,-2.16797 0,-1.27735 -0.38672,-2.15625 -0.38672,-0.89063 -1.07813,-1.34766 -0.67968,-0.46875 -1.59375,-0.46875 -0.97265,0 -1.6875,0.49219 -0.71484,0.49219 -1.11328,1.38281 -0.39844,0.89063 -0.39844,2.09766 0,1.20703 0.39844,2.10937 0.39844,0.89063 1.11328,1.38281 0.71485,0.48047 1.6875,0.48047 z m 12.36328,2.22657 6.23438,-17.46094 h 3.89062 l 6.21094,17.46094 h -3.41015 l -3.0586,-9.17579 q -0.45703,-1.45312 -0.96094,-3.08203 -0.5039,-1.64062 -1.14843,-3.86718 h 0.85547 q -0.64454,2.22656 -1.16016,3.86718 -0.50391,1.62891 -0.98438,3.08203 l -3.14062,9.17579 z m 3.70313,-4.17188 v -2.54297 h 8.92969 v 2.54297 z m 18.36795,4.41797 q -1.60547,0 -2.82422,-0.80859 -1.20703,-0.8086 -1.875,-2.26172 -0.65625,-1.45313 -0.65625,-3.375 0,-1.89844 0.66797,-3.35157 0.66797,-1.45312 1.875,-2.26171 1.20703,-0.8086 2.78906,-0.8086 0.8086,0 1.5,0.22266 0.70313,0.21094 1.26563,0.65625 0.5625,0.44531 0.96093,1.125 h 0.0234 v -6.84375 h 2.95313 v 17.46094 h -2.90625 v -1.88672 h -0.0234 q -0.38672,0.71484 -0.96094,1.19531 -0.5625,0.46875 -1.27734,0.70312 -0.70313,0.23438 -1.51172,0.23438 z m 0.69141,-2.47266 q 0.97265,0 1.6875,-0.48047 0.71484,-0.49218 1.11328,-1.38281 0.39843,-0.90234 0.39843,-2.10937 0,-1.20703 -0.39843,-2.09766 -0.39844,-0.89062 -1.11328,-1.38281 -0.71485,-0.49219 -1.6875,-0.49219 -0.90235,0 -1.59375,0.46875 -0.69141,0.45703 -1.07813,1.34766 -0.38672,0.8789 -0.38672,2.15625 0,1.27734 0.38672,2.16797 0.38672,0.89062 1.07813,1.34765 0.6914,0.45703 1.59375,0.45703 z"
           id="text24"
           aria-label="Skip Ad" /><path
           d="m 183.14464,134.85333 v -13.70666 h 3.82939 v 13.70666 z m -12.37614,0 V 121.14667 L 183.14464,128 Z"
           id="text28"
           style="font-weight:bold;font-size:38.4702px;line-height:1.2;font-family:'Adwaita Sans';-inkscape-font-specification:'Adwaita Sans Bold';fill:#272727;fill-opacity:1;stroke-width:0.709056;stroke-miterlimit:10"
           aria-label="⏭"
           sodipodi:nodetypes="ccccccccc" /></g></g></g></svg>
