<?xml version="1.0" encoding="UTF-8" standalone="no"?>
<!-- Created with Inkscape (http://www.inkscape.org/) -->

<svg
   width="32"
   height="32"
   viewBox="0 0 32 32"
   version="1.1"
   id="svg1"
   sodipodi:docname="vine_short1.svg"
   inkscape:version="1.4.3 (0d15f75042, 2025-12-25)"
   xmlns:inkscape="http://www.inkscape.org/namespaces/inkscape"
   xmlns:sodipodi="http://sodipodi.sourceforge.net/DTD/sodipodi-0.dtd"
   xmlns:xlink="http://www.w3.org/1999/xlink"
   xmlns="http://www.w3.org/2000/svg"
   xmlns:svg="http://www.w3.org/2000/svg">
  <sodipodi:namedview
     id="namedview1"
     pagecolor="#505050"
     bordercolor="#ffffff"
     borderopacity="1"
     inkscape:showpageshadow="0"
     inkscape:pageopacity="0"
     inkscape:pagecheckerboard="1"
     inkscape:deskcolor="#505050"
     inkscape:document-units="px"
     showguides="true"
     inkscape:zoom="69.519023"
     inkscape:cx="18.261189"
     inkscape:cy="18.872532"
     inkscape:window-width="2560"
     inkscape:window-height="1363"
     inkscape:window-x="1760"
     inkscape:window-y="648"
     inkscape:window-maximized="1"
     inkscape:current-layer="layer1">
    <sodipodi:guide
       position="16.035497,17.248853"
       orientation="1,0"
       id="guide1"
       inkscape:locked="false" />
    <sodipodi:guide
       position="21.091817,16.014923"
       orientation="0,-1"
       id="guide2"
       inkscape:locked="false" />
  </sodipodi:namedview>
  <defs
     id="defs1">
    <linearGradient
       id="linearGradient2"
       inkscape:collect="always">
      <stop
         style="stop-color:#231f1c;stop-opacity:1;"
         offset="0"
         id="stop4" />
      <stop
         style="stop-color:#423c3a;stop-opacity:1;"
         offset="1"
         id="stop2" />
    </linearGradient>
    <radialGradient
       inkscape:collect="always"
       xlink:href="#linearGradient2"
       id="radialGradient3-7"
       cx="23.717789"
       cy="21.209358"
       fx="23.717789"
       fy="21.209358"
       r="8.9509497"
       gradientTransform="matrix(1.4046476,0.06081929,-0.01565765,0.36162021,-9.5757625,8.0786057)"
       gradientUnits="userSpaceOnUse" />
    <radialGradient
       inkscape:collect="always"
       xlink:href="#linearGradient2"
       id="radialGradient7-2"
       gradientUnits="userSpaceOnUse"
       gradientTransform="matrix(1.3629091,-0.11272506,0.02983545,0.3607273,-8.272222,17.534198)"
       cx="22.929327"
       cy="6.9309993"
       fx="22.929327"
       fy="6.9309993"
       r="8.9509497" />
    <radialGradient
       inkscape:collect="always"
       xlink:href="#linearGradient2"
       id="radialGradient8"
       gradientUnits="userSpaceOnUse"
       gradientTransform="matrix(-0.8424039,-0.06484545,0.02778243,-0.36089123,43.649009,7.2013334)"
       cx="24.795197"
       cy="-26.659479"
       fx="24.795197"
       fy="-26.659479"
       r="8.9509497" />
  </defs>
  <g
     inkscape:label="Layer 1"
     inkscape:groupmode="layer"
     id="layer1">
    <path
       style="fill:url(#radialGradient8);fill-opacity:1;stroke:#1e1d1c;stroke-width:0.491501;stroke-miterlimit:10;stroke-dasharray:none;stroke-opacity:1"
       d="m 16.19432,15.05407 c -0.334317,-0.0037 -0.69706,-0.115587 -1.002819,0.01966 -0.187234,0.08282 -0.355691,0.252573 -0.422007,0.44627 -0.07531,0.219972 -0.04361,0.490265 0.06807,0.694192 0.13681,0.249805 0.397726,0.450092 0.671619,0.528212 0.269102,0.07675 0.610673,0.03385 0.834359,-0.09278 0.223686,-0.126632 0.354226,-0.192659 0.53056,-0.334258 0.176334,-0.141599 0.249342,-0.134304 0.522197,-0.192344 0.272855,-0.05804 0.361157,-0.09963 0.698217,-0.137945 0.33706,-0.03832 0.559705,-0.01419 0.848394,0.04145 0.28869,0.05564 0.396529,0.12815 0.600613,0.22985 0.204084,0.101701 0.550085,0.21822 0.710697,0.408232 0.160613,0.190011 0.741656,0.354378 0.951199,0.322955 0.209543,-0.03142 0.505984,-0.05132 0.760039,-0.109776 -0.305971,-0.08265 -0.893028,-0.700632 -1.089409,-0.897986 -0.338875,-0.340557 -0.555244,-0.487447 -0.875632,-0.665746 -0.333795,-0.18576 -0.695084,-0.337862 -1.070271,-0.409698 -0.228597,-0.04377 -0.465464,-0.01214 -0.698192,-0.0089 -0.20718,0.0029 -0.415562,-0.0011 -0.621091,0.02517 -0.25172,0.03216 -0.506208,0.123155 -0.743986,0.161436 -0.152241,0.02451 -0.448191,-0.02551 -0.672557,-0.02797 z"
       id="path8"
       sodipodi:nodetypes="aaaaazssssssscsaaaasa" />
  </g>
</svg>
