<?xml version="1.0" encoding="UTF-8" standalone="no"?>
<!-- Created with Inkscape (http://www.inkscape.org/) -->

<svg
   width="320"
   height="320"
   viewBox="0 0 320 320"
   version="1.1"
   id="svg1"
   xml:space="preserve"
   sodipodi:docname="weapon.svg"
   inkscape:version="1.4.3 (0d15f75042, 2025-12-25)"
   xmlns:inkscape="http://www.inkscape.org/namespaces/inkscape"
   xmlns:sodipodi="http://sodipodi.sourceforge.net/DTD/sodipodi-0.dtd"
   xmlns:xlink="http://www.w3.org/1999/xlink"
   xmlns="http://www.w3.org/2000/svg"
   xmlns:svg="http://www.w3.org/2000/svg"><sodipodi:namedview
     id="namedview1"
     pagecolor="#505050"
     bordercolor="#ffffff"
     borderopacity="1"
     inkscape:showpageshadow="0"
     inkscape:pageopacity="0"
     inkscape:pagecheckerboard="1"
     inkscape:deskcolor="#505050"
     inkscape:document-units="px"
     showguides="true"
     inkscape:zoom="2.8747953"
     inkscape:cx="78.788219"
     inkscape:cy="167.31626"
     inkscape:window-width="2560"
     inkscape:window-height="1363"
     inkscape:window-x="1760"
     inkscape:window-y="648"
     inkscape:window-maximized="1"
     inkscape:current-layer="layer1"><sodipodi:guide
       position="160,160"
       orientation="0,-1"
       id="guide1"
       inkscape:locked="false" /><sodipodi:guide
       position="160,160"
       orientation="1,0"
       id="guide2"
       inkscape:locked="false" /></sodipodi:namedview><defs
     id="defs1"><linearGradient
       id="linearGradient39"
       inkscape:collect="always"><stop
         style="stop-color:#704f1f;stop-opacity:1;"
         offset="0"
         id="stop39" /><stop
         style="stop-color:#2e230b;stop-opacity:1;"
         offset="1"
         id="stop38" /></linearGradient><linearGradient
       id="linearGradient37"
       inkscape:collect="always"><stop
         style="stop-color:#2e230b;stop-opacity:1;"
         offset="0"
         id="stop37" /><stop
         style="stop-color:#704f1f;stop-opacity:1;"
         offset="1"
         id="stop36" /></linearGradient><linearGradient
       id="linearGradient35"
       inkscape:collect="always"><stop
         style="stop-color:#0d0905;stop-opacity:1;"
         offset="0"
         id="stop34" /><stop
         style="stop-color:#3b2c0e;stop-opacity:1;"
         offset="1"
         id="stop35" /></linearGradient><linearGradient
       id="linearGradient33"
       inkscape:collect="always"><stop
         style="stop-color:#2c1f11;stop-opacity:1;"
         offset="0"
         id="stop32" /><stop
         style="stop-color:#3b2c0e;stop-opacity:1;"
         offset="1"
         id="stop33" /></linearGradient><linearGradient
       id="linearGradient31"
       inkscape:collect="always"><stop
         style="stop-color:#42330f;stop-opacity:1;"
         offset="0"
         id="stop31" /><stop
         style="stop-color:#745220;stop-opacity:1;"
         offset="1"
         id="stop30" /></linearGradient><linearGradient
       id="linearGradient29"
       inkscape:collect="always"><stop
         style="stop-color:#704f1f;stop-opacity:1;"
         offset="0"
         id="stop28" /><stop
         style="stop-color:#2e230b;stop-opacity:1;"
         offset="1"
         id="stop29" /></linearGradient><linearGradient
       id="linearGradient25"
       inkscape:collect="always"><stop
         style="stop-color:#976a2a;stop-opacity:1;"
         offset="0"
         id="stop25" /><stop
         style="stop-color:#4a3911;stop-opacity:1;"
         offset="1"
         id="stop26" /></linearGradient><filter
       style="color-interpolation-filters:sRGB"
       inkscape:label="Drop Shadow"
       id="filter22"
       x="-0.10714286"
       y="-0.375"
       width="1.2142857"
       height="1.75"><feFlood
         result="flood"
         in="SourceGraphic"
         flood-opacity="0.254902"
         flood-color="rgb(0,0,0)"
         id="feFlood21" /><feGaussianBlur
         result="blur"
         in="SourceGraphic"
         stdDeviation="2.500000"
         id="feGaussianBlur21" /><feOffset
         result="offset"
         in="blur"
         dx="-2.500000"
         dy="-2.500000"
         id="feOffset21" /><feComposite
         result="comp1"
         operator="out"
         in="flood"
         in2="offset"
         id="feComposite21" /><feComposite
         result="fbSourceGraphic"
         operator="atop"
         in="comp1"
         in2="SourceGraphic"
         id="feComposite22" /><feColorMatrix
         result="fbSourceGraphicAlpha"
         in="fbSourceGraphic"
         values="0 0 0 -1 0 0 0 0 -1 0 0 0 0 -1 0 0 0 0 1 0"
         id="feColorMatrix23" /><feFlood
         id="feFlood23"
         result="flood"
         in="fbSourceGraphic"
         flood-opacity="0.254902"
         flood-color="rgb(255,255,255)" /><feGaussianBlur
         id="feGaussianBlur23"
         result="blur"
         in="fbSourceGraphic"
         stdDeviation="2.500000" /><feOffset
         id="feOffset23"
         result="offset"
         in="blur"
         dx="2.500000"
         dy="2.500000" /><feComposite
         id="feComposite23"
         result="comp1"
         operator="out"
         in="flood"
         in2="offset" /><feComposite
         id="feComposite24"
         result="comp2"
         operator="atop"
         in="comp1"
         in2="fbSourceGraphic" /></filter><radialGradient
       inkscape:collect="always"
       xlink:href="#linearGradient25"
       id="radialGradient26"
       cx="-127.1241"
       cy="211.5262"
       fx="-127.1241"
       fy="211.5262"
       r="24.846674"
       gradientTransform="matrix(0.5967441,-0.63033155,0.88321213,0.83614984,-238.08606,-45.386049)"
       gradientUnits="userSpaceOnUse" /><radialGradient
       inkscape:collect="always"
       xlink:href="#linearGradient25"
       id="radialGradient26-3"
       cx="-127.1241"
       cy="211.5262"
       fx="-127.1241"
       fy="211.5262"
       r="24.846674"
       gradientTransform="matrix(0.5967441,-0.63033155,0.88321213,0.83614984,-238.08606,-45.386049)"
       gradientUnits="userSpaceOnUse" /><linearGradient
       inkscape:collect="always"
       xlink:href="#linearGradient29"
       id="linearGradient28"
       x1="-96.836136"
       y1="215.92963"
       x2="-137.7164"
       y2="180.16171"
       gradientUnits="userSpaceOnUse" /><radialGradient
       inkscape:collect="always"
       xlink:href="#linearGradient25"
       id="radialGradient26-7"
       cx="-127.1241"
       cy="211.5262"
       fx="-127.1241"
       fy="211.5262"
       r="24.846674"
       gradientTransform="matrix(0.5967441,-0.63033155,0.88321213,0.83614984,-238.08606,-45.386049)"
       gradientUnits="userSpaceOnUse" /><linearGradient
       inkscape:collect="always"
       xlink:href="#linearGradient31"
       id="linearGradient30"
       x1="-137.11444"
       y1="179.55975"
       x2="-127.42717"
       y2="185.62476"
       gradientUnits="userSpaceOnUse" /><linearGradient
       inkscape:collect="always"
       xlink:href="#linearGradient33"
       id="linearGradient32"
       gradientUnits="userSpaceOnUse"
       x1="-97"
       y1="212.06152"
       x2="-107.72266"
       y2="199.93555" /><linearGradient
       inkscape:collect="always"
       xlink:href="#linearGradient35"
       id="linearGradient34"
       gradientUnits="userSpaceOnUse"
       x1="-98.205795"
       y1="208.19344"
       x2="-91.751953"
       y2="216.61328" /><linearGradient
       inkscape:collect="always"
       xlink:href="#linearGradient37"
       id="linearGradient36"
       gradientUnits="userSpaceOnUse"
       x1="-92.952217"
       y1="180.81195"
       x2="-97.18718"
       y2="176.67616" /><linearGradient
       inkscape:collect="always"
       xlink:href="#linearGradient37"
       id="linearGradient36-4"
       gradientUnits="userSpaceOnUse"
       x1="-92.952217"
       y1="180.81195"
       x2="-97.18718"
       y2="176.67616" /><radialGradient
       inkscape:collect="always"
       xlink:href="#linearGradient39"
       id="radialGradient38"
       cx="-67.930901"
       cy="58.257816"
       fx="-67.930901"
       fy="58.257816"
       r="3.6111658"
       gradientUnits="userSpaceOnUse"
       gradientTransform="matrix(1.1590719,0,0,1.0908973,10.805895,-5.2954762)" /></defs><g
     inkscape:label="Layer 1"
     inkscape:groupmode="layer"
     id="layer1"><g
       id="g45"
       transform="rotate(45,83.203193,347.99849)"
       inkscape:transform-center-x="56.694749"
       inkscape:transform-center-y="-56.417048"><g
         id="g37"
         transform="rotate(45,-76.90488,160.95463)"><circle
           style="fill:url(#radialGradient38);fill-opacity:1;stroke:#211904;stroke-width:1;stroke-linejoin:round;stroke-miterlimit:10;stroke-dasharray:none;stroke-opacity:1"
           id="path38"
           cx="-67.356468"
           cy="59.234921"
           r="3.1111658"
           transform="rotate(-45)" /><path
           style="fill:url(#linearGradient36);stroke:#211904;stroke-width:1;stroke-linejoin:round;stroke-miterlimit:10;stroke-dasharray:none;stroke-opacity:1"
           d="m -112.0586,186.96241 2.34248,6.40712 6.34335,2.34249 c 32.030805,-36.38897 64.795809,-71.41103 98.6255239,-105.202835 -0.066681,-1.260727 -0.7303851,-1.92443 -1.991113,-1.99111 C -40.549614,122.37056 -75.586348,155.18534 -112.0586,186.96241 Z"
           id="path3"
           sodipodi:nodetypes="cccccc" /><g
           id="g3"
           style="stroke:#211904;stroke-opacity:1"><path
             id="path23"
             style="fill:url(#radialGradient26);stroke:#211904;stroke-width:1;stroke-linejoin:round;stroke-miterlimit:10;stroke-dasharray:none;stroke-opacity:1"
             d="m -136.58789,183.35742 c -2.31944,0.077 -4.3951,0.66759 -6.0918,1.76758 4.12178,8.68368 1.26455,15.92948 -6.38281,16.18359 0.5451,5.0209 3.18926,10.59545 7.35352,15.4961 7.64734,-0.25411 17.18875,6.57803 21.31054,15.26172 5.34407,1.90965 10.25309,1.74685 13.64649,-0.45313 -4.12178,-8.68368 -1.26454,-15.92948 6.38281,-16.18359 -0.54508,-5.0209 -3.18926,-10.5935 -7.35352,-15.49414 -7.64734,0.25411 -17.18875,-6.57997 -21.31054,-15.26367 -2.67204,-0.95484 -5.23525,-1.39145 -7.55469,-1.31446 z" /><path
             id="path19"
             style="fill:url(#linearGradient32);stroke:#211904;stroke-width:1;stroke-linejoin:round;stroke-miterlimit:10;stroke-dasharray:none;stroke-opacity:1"
             d="m -92.722656,184.93555 -15.000004,15 c 4.16426,4.90064 6.80844,10.47324 7.35352,15.49414 l 6.738281,-6.73828 8.261718,-8.26172 c -0.54508,-5.0209 -3.189255,-10.5935 -7.353515,-15.49414 z" /><path
             d="m -93.630859,208.69336 -6.738281,6.73633 c -7.64735,0.25411 -10.50459,7.49991 -6.38281,16.18359 l 14.999997,-15 c -1.358862,-2.86282 -1.958798,-5.56871 -1.878906,-7.91992 z"
             style="fill:url(#linearGradient34);stroke:#211904;stroke-width:1;stroke-linejoin:round;stroke-miterlimit:10;stroke-dasharray:none;stroke-opacity:1"
             id="path20" /><path
             d="m -114.0332,169.67187 -15,15 c 4.12179,8.6837 13.6632,15.51779 21.31054,15.26368 l 15.000004,-15 c -7.647334,0.25411 -17.188754,-6.57998 -21.310544,-15.26368 z"
             style="fill:url(#linearGradient28);stroke:#211904;stroke-width:1;stroke-linejoin:round;stroke-miterlimit:10;stroke-dasharray:none;stroke-opacity:1"
             id="path17" /><path
             d="m -121.58789,168.35742 c -2.31935,0.0771 -4.3951,0.66759 -6.0918,1.76758 l -15,15 c 3.3934,-2.19998 8.30242,-2.36279 13.64649,-0.45313 l 15,-15 c -2.67204,-0.95483 -5.23534,-1.39152 -7.55469,-1.31445 z"
             style="fill:url(#linearGradient30);stroke:#211904;stroke-width:1;stroke-linejoin:round;stroke-miterlimit:10;stroke-dasharray:none;stroke-opacity:1"
             id="path16" /></g></g><g
         id="g42"><g
           id="g44"
           transform="translate(9.1408866,-0.10062347)"><path
             style="fill:#4c4844;fill-opacity:1;stroke:#25211d;stroke-width:1;stroke-linejoin:round;stroke-miterlimit:10;stroke-dasharray:none;stroke-opacity:1"
             d="m 3.5744711,164.80205 c -0.4019012,-0.17349 -1.449415,-1.87887 -0.9427112,-2.33916 l 2.8551158,-0.0339 c 0.2683747,-0.23984 -0.1983436,0.44191 -0.018343,1.22787 0.008,-0.0468 -0.06433,-2.54569 1.17406,-2.87787 0.5451295,0.38927 1.0362383,0.9721 1.2004696,1.62528 0.1825127,0.72591 0.014568,1.55344 -0.3211937,2.2224 -0.254423,0.5069 -0.5041845,1.04844 -1.2048669,1.20142 -0.7006824,0.15299 -2.3406291,-0.85256 -2.7425301,-1.02605 z"
             id="path43-0-7"
             sodipodi:nodetypes="zccccaazz" /><path
             style="fill:#4c4844;fill-opacity:1;stroke:#25211d;stroke-width:1;stroke-linejoin:round;stroke-miterlimit:10;stroke-dasharray:none;stroke-opacity:1"
             d="m 1.155574,164.69829 c -0.43533135,-0.18792 -1.56997754,-2.03515 -1.02112598,-2.53373 l 3.09260448,-0.0367 c 0.2906983,-0.25979 -0.2148417,0.47866 -0.019869,1.33001 0.00867,-0.0507 -0.069681,-2.75744 1.2717184,-3.11725 0.5904734,0.42164 1.1224326,1.05295 1.3003247,1.76047 0.1976941,0.78629 0.015779,1.68264 -0.3479106,2.40725 -0.2755859,0.54907 -0.5461226,1.13565 -1.3050878,1.30137 -0.7589652,0.16571 -2.5353227,-0.92349 -2.9706541,-1.1114 z"
             id="path43-2"
             sodipodi:nodetypes="zccccaazz" /><path
             style="fill:#4c4844;fill-opacity:1;stroke:#25211d;stroke-width:1;stroke-linejoin:round;stroke-miterlimit:10;stroke-dasharray:none;stroke-opacity:1"
             d="m -1.5900815,164.65696 c -0.4616005,-0.19926 -1.6647149,-2.15795 -1.082744,-2.68662 l 3.2792219,-0.0389 c 0.30823986,-0.27547 -0.22780601,0.50754 -0.0210682,1.41026 0.00919,-0.0538 -0.0738857,-2.92383 1.3484579,-3.30535 0.6261044,0.44708 1.1901636,1.11649 1.3787903,1.8667 0.2096235,0.83373 0.016732,1.78417 -0.3689047,2.55251 -0.2922157,0.5822 -0.5790773,1.20419 -1.3838407,1.3799 -0.80476355,0.17571 -2.6883121,-0.97921 -3.1499125,-1.17847 z"
             id="path43-0"
             sodipodi:nodetypes="zccccaazz" /><path
             style="fill:#4c4844;fill-opacity:1;stroke:#25211d;stroke-width:1;stroke-linejoin:round;stroke-miterlimit:10;stroke-dasharray:none;stroke-opacity:1"
             d="m 7.8770332,159.44316 c 0,0 -0.17631,-2.00947 -0.8521689,-2.64109 -1.2775831,-1.19396 -3.3471624,-1.41271 -5.0899474,-1.26971 -2.3544497,0.19319 -6.0451497,0.45752 -6.5047813,2.81329 -0.5071899,1.58046 0.8010901,0.96946 1.4080945,1.63762 0.6070043,0.66815 0.2189507,2.94955 1.2870285,2.93473 1.26359479,-0.0175 2.17060819,-1.58899 1.42566371,-3.51288 z"
             id="path44"
             sodipodi:nodetypes="caaczacc" /><path
             style="fill:#4c4844;fill-opacity:1;stroke:#25211d;stroke-width:1;stroke-linejoin:round;stroke-miterlimit:10;stroke-dasharray:none;stroke-opacity:1"
             d="m -3.9487736,164.75183 c -0.4353313,-0.18791 -1.5699775,-2.03514 -1.021126,-2.53373 l 3.0926045,-0.0367 c 0.2906983,-0.25979 -0.2148417,0.47865 -0.019869,1.33 0.00867,-0.0507 -0.069681,-2.75744 1.27171838,-3.11725 0.59047341,0.42164 1.12243261,1.05296 1.30032472,1.76048 0.19769404,0.78628 0.0157795,1.68264 -0.34791063,2.40724 -0.27558596,0.54907 -0.54612261,1.13566 -1.30508776,1.30137 -0.75896511,0.16571 -2.53532281,-0.92348 -2.97065411,-1.1114 z"
             id="path43"
             sodipodi:nodetypes="zccccaazz" /></g><path
           id="path42"
           style="fill:#4c4844;fill-opacity:1;stroke:#25211d;stroke-width:1;stroke-linejoin:round;stroke-miterlimit:10;stroke-dasharray:none;stroke-opacity:1"
           d="m 0.45251519,165.04838 c 0.71808891,0.14314 1.37242201,0.73257 2.36694841,-0.10205 0.7155797,-0.60053 0.6970381,-1.66435 0.8485872,-2.58615 0.1414278,-0.86024 0.1441375,-1.75762 -0.011853,-2.61534 -0.1368845,-0.75267 -0.3956259,-1.6042 -0.7983083,-2.15171 -0.4026824,-0.54751 -0.7726813,-0.82811 -1.4108633,-1.08996 -0.63818201,-0.26185 -2.9526746,-1.23306 -4.5213466,-1.35871 -1.816097,-0.14546 -3.834779,0.004 -5.4181381,0.71979 -1.5833595,0.71628 -1.6721935,2.03072 -1.4285465,2.97689 0.5486445,0.0109 2.3344585,0.0483 2.9908336,0.0612 0.603789,0.79723 1.080513,2.638 -0.07477,3.64072 l -1.3423251,0.0267 c -0.210052,0.8151 0.353341,1.63035 0.859189,2.25627 0.331726,0.41047 0.8007011,0.86122 1.3284591,0.86137 0.510283,1.4e-4 0.828178,-0.45466 1.146569,-0.85343 0.253844,-0.31792 0.465114,-0.72864 0.558556,-1.1246 0.09378,-0.3974 0.203046,-1.52692 0.136943,-1.21728 0.06194,0.87805 -0.173937,1.56995 -0.565053,2.16483 0.70375,0.82217 1.604379,1.20896 2.308672,0.8225 0.540354,-0.29651 0.645743,-1.05988 0.854403,-1.63984 0.161403,-0.44862 0.267337,-0.918 0.298712,-1.39877 0.007,0.89941 -0.297284,1.60075 -0.594297,2.30671 0.640572,0.3877 0.884794,0.9741 1.50697959,0.89984 0.646009,-0.0771 1.136874,-0.74549 1.433613,-1.32447 0.29479091,-0.57518 0.30172001,-1.21178 0.23649991,-1.92449 0.1982571,0.9858 0.0022,1.82595 -0.70946391,2.64998 z"
           sodipodi:nodetypes="cssszzazccccssssccssccsscc" /></g></g></g></svg>
